<svg viewBox="0 0 880 261" width="880" xmlns="http://www.w3.org/2000/svg" font-family="ui-monospace, SFMono-Regular, 'SF Mono', Menlo, Consolas, 'Liberation Mono', monospace" role="img" aria-label="cat education.log">
<defs><linearGradient id="bg" x1="0" y1="0" x2="0" y2="1"><stop offset="0" stop-color="#12171f"/><stop offset="1" stop-color="#0a0e13"/></linearGradient><linearGradient id="bar" x1="0" y1="0" x2="0" y2="1"><stop offset="0" stop-color="#1b2129"/><stop offset="1" stop-color="#141a21"/></linearGradient></defs>
<rect x="4" y="4" width="872" height="253" rx="14" fill="url(#bg)" stroke="#272f39" stroke-width="1.5"/>
<path d="M4 18 a14 14 0 0 1 14 -14 h844 a14 14 0 0 1 14 14 v40 h-872 z" fill="url(#bar)"/>
<circle cx="34" cy="31" r="6.5" fill="#ff5f57"/><circle cx="58" cy="31" r="6.5" fill="#febc2e"/><circle cx="82" cy="31" r="6.5" fill="#28c840"/>
<text x="440" y="36" text-anchor="middle" font-size="13" fill="#5b6470" letter-spacing="0.4">maxiozonas &#183; cat education.log</text>
<line x1="4" y1="58" x2="876" y2="58" stroke="#1d242c" stroke-width="1"/>
<line x1="39" y1="124" x2="39" y2="192" stroke="#e0785f" stroke-width="2" opacity="0.30"/>
<g opacity="0" transform="translate(0 8)"><animate attributeName="opacity" from="0" to="1" begin="0.15s" dur="0.3s" fill="freeze"/><animateTransform attributeName="transform" type="translate" values="0 8;0 0" begin="0.15s" dur="0.3s" fill="freeze"/><circle cx="39" cy="87" r="5" fill="#e0785f"/><text x="56" y="92" font-size="16" fill="#e9eef5">Read(education.log)</text></g><g opacity="0" transform="translate(0 8)"><animate attributeName="opacity" from="0" to="1" begin="0.27s" dur="0.3s" fill="freeze"/><animateTransform attributeName="transform" type="translate" values="0 8;0 0" begin="0.27s" dur="0.3s" fill="freeze"/><circle cx="39" cy="124" r="5" fill="#0a0e13" stroke="#e0785f" stroke-width="2"/><text x="56" y="129" font-size="16" fill="#aeb9c6" font-weight="600">2021 &#8211; 2024 &#183; University Technician in Programming</text></g><g opacity="0" transform="translate(0 8)"><animate attributeName="opacity" from="0" to="1" begin="0.39s" dur="0.3s" fill="freeze"/><animateTransform attributeName="transform" type="translate" values="0 8;0 0" begin="0.39s" dur="0.3s" fill="freeze"/><text x="74" y="158" font-size="16" fill="#7d8794">Universidad Tecnol&#243;gica Nacional (UTN)</text></g><g opacity="0" transform="translate(0 8)"><animate attributeName="opacity" from="0" to="1" begin="0.51s" dur="0.3s" fill="freeze"/><animateTransform attributeName="transform" type="translate" values="0 8;0 0" begin="0.51s" dur="0.3s" fill="freeze"/><circle cx="39" cy="192" r="5" fill="#0a0e13" stroke="#e0785f" stroke-width="2"/><text x="56" y="197" font-size="16" fill="#aeb9c6" font-weight="600">2006 &#8211; 2017 &#183; High School in Economics</text></g><g opacity="0" transform="translate(0 8)"><animate attributeName="opacity" from="0" to="1" begin="0.63s" dur="0.3s" fill="freeze"/><animateTransform attributeName="transform" type="translate" values="0 8;0 0" begin="0.63s" dur="0.3s" fill="freeze"/><text x="74" y="226" font-size="16" fill="#7d8794">Colegio Claret &#183; Bah&#237;a Blanca</text></g>
</svg>