<svg viewBox="0 0 880 348" width="880" xmlns="http://www.w3.org/2000/svg" font-family="ui-monospace, SFMono-Regular, 'SF Mono', Menlo, Consolas, 'Liberation Mono', monospace" role="img" aria-label="Update Todos">
<defs><linearGradient id="bg" x1="0" y1="0" x2="0" y2="1"><stop offset="0" stop-color="#12171f"/><stop offset="1" stop-color="#0a0e13"/></linearGradient><linearGradient id="bar" x1="0" y1="0" x2="0" y2="1"><stop offset="0" stop-color="#1b2129"/><stop offset="1" stop-color="#141a21"/></linearGradient></defs>
<rect x="4" y="4" width="872" height="340" rx="14" fill="url(#bg)" stroke="#272f39" stroke-width="1.5"/>
<path d="M4 18 a14 14 0 0 1 14 -14 h844 a14 14 0 0 1 14 14 v40 h-872 z" fill="url(#bar)"/>
<circle cx="34" cy="31" r="6.5" fill="#ff5f57"/><circle cx="58" cy="31" r="6.5" fill="#febc2e"/><circle cx="82" cy="31" r="6.5" fill="#28c840"/>
<text x="440" y="36" text-anchor="middle" font-size="13" fill="#5b6470" letter-spacing="0.4">maxiozonas &#183; Update Todos</text>
<line x1="4" y1="58" x2="876" y2="58" stroke="#1d242c" stroke-width="1"/>

<g opacity="0" transform="translate(0 8)"><animate attributeName="opacity" from="0" to="1" begin="0.15s" dur="0.3s" fill="freeze"/><animateTransform attributeName="transform" type="translate" values="0 8;0 0" begin="0.15s" dur="0.3s" fill="freeze"/><circle cx="39" cy="87" r="5" fill="#e0785f"/><text x="56" y="92" font-size="16" fill="#e9eef5">Update Todos</text></g><g opacity="0" transform="translate(0 8)"><animate attributeName="opacity" from="0" to="1" begin="0.27s" dur="0.3s" fill="freeze"/><animateTransform attributeName="transform" type="translate" values="0 8;0 0" begin="0.27s" dur="0.3s" fill="freeze"/><rect x="32" y="116" width="15" height="15" rx="4" fill="#e0785f"/><path d="M35 124 l 2.6 3 l 5.4 -7" fill="none" stroke="#fff" stroke-width="2" stroke-linecap="round" stroke-linejoin="round"/><text x="58" y="129" font-size="16" fill="#c9d3df">Lead dev &amp; digital transformation @ Giliycia</text></g><g opacity="0" transform="translate(0 8)"><animate attributeName="opacity" from="0" to="1" begin="0.39s" dur="0.3s" fill="freeze"/><animateTransform attributeName="transform" type="translate" values="0 8;0 0" begin="0.39s" dur="0.3s" fill="freeze"/><rect x="32" y="145" width="15" height="15" rx="4" fill="#e0785f"/><path d="M35 153 l 2.6 3 l 5.4 -7" fill="none" stroke="#fff" stroke-width="2" stroke-linecap="round" stroke-linejoin="round"/><text x="58" y="158" font-size="16" fill="#c9d3df">Build &amp; maintain internal business applications</text></g><g opacity="0" transform="translate(0 8)"><animate attributeName="opacity" from="0" to="1" begin="0.51s" dur="0.3s" fill="freeze"/><animateTransform attributeName="transform" type="translate" values="0 8;0 0" begin="0.51s" dur="0.3s" fill="freeze"/><rect x="32" y="174" width="15" height="15" rx="4" fill="#e0785f"/><path d="M35 182 l 2.6 3 l 5.4 -7" fill="none" stroke="#fff" stroke-width="2" stroke-linecap="round" stroke-linejoin="round"/><text x="58" y="187" font-size="16" fill="#c9d3df">Ship the Food Partners ERP to production</text></g><g opacity="0" transform="translate(0 8)"><animate attributeName="opacity" from="0" to="1" begin="0.63s" dur="0.3s" fill="freeze"/><animateTransform attributeName="transform" type="translate" values="0 8;0 0" begin="0.63s" dur="0.3s" fill="freeze"/><rect x="32" y="203" width="15" height="15" rx="4" fill="none" stroke="#5b6470" stroke-width="1.5"/><text x="58" y="216" font-size="16" fill="#7d8794">System architecture at scale</text></g><g opacity="0" transform="translate(0 8)"><animate attributeName="opacity" from="0" to="1" begin="0.75s" dur="0.3s" fill="freeze"/><animateTransform attributeName="transform" type="translate" values="0 8;0 0" begin="0.75s" dur="0.3s" fill="freeze"/><rect x="32" y="232" width="15" height="15" rx="4" fill="none" stroke="#5b6470" stroke-width="1.5"/><text x="58" y="245" font-size="16" fill="#7d8794">DevOps &amp; scalable backend design</text></g><g opacity="0" transform="translate(0 8)"><animate attributeName="opacity" from="0" to="1" begin="0.87s" dur="0.3s" fill="freeze"/><animateTransform attributeName="transform" type="translate" values="0 8;0 0" begin="0.87s" dur="0.3s" fill="freeze"/><rect x="32" y="261" width="15" height="15" rx="4" fill="none" stroke="#5b6470" stroke-width="1.5"/><text x="58" y="274" font-size="16" fill="#7d8794">AI engineering</text></g><g opacity="0" transform="translate(0 8)"><animate attributeName="opacity" from="0" to="1" begin="0.99s" dur="0.3s" fill="freeze"/><animateTransform attributeName="transform" type="translate" values="0 8;0 0" begin="0.99s" dur="0.3s" fill="freeze"/><path d="M40 300 L40 310 L50 310" fill="none" stroke="#5b6470" stroke-width="1.4"/><text x="58" y="313" font-size="15" fill="#5b6470">3 done &#183; 3 in progress</text></g>
</svg>